<svg xmlns="http://www.w3.org/2000/svg" xmlns:xlink="http://www.w3.org/1999/xlink" width="410" zoomAndPan="magnify" viewBox="0 0 307.5 147.000002" height="196" preserveAspectRatio="xMidYMid meet" version="1.0"><defs><clipPath id="id1"><path d="M 0.789062 0 L 306.210938 0 L 306.210938 146.007812 L 0.789062 146.007812 Z M 0.789062 0 " clip-rule="nonzero"/></clipPath></defs><g clip-path="url(#id1)"><path fill="#ffffff" d="M 0.789062 0 L 306.710938 0 L 306.710938 153.707031 L 0.789062 153.707031 Z M 0.789062 0 " fill-opacity="1" fill-rule="nonzero"/><path fill="#ffffff" d="M 0.789062 0 L 306.710938 0 L 306.710938 146.246094 L 0.789062 146.246094 Z M 0.789062 0 " fill-opacity="1" fill-rule="nonzero"/><path fill="#ffffff" d="M 0.789062 0 L 306.710938 0 L 306.710938 146.246094 L 0.789062 146.246094 Z M 0.789062 0 " fill-opacity="1" fill-rule="nonzero"/><path fill="#ffffff" d="M 0.789062 0 L 306.710938 0 L 306.710938 146.246094 L 0.789062 146.246094 Z M 0.789062 0 " fill-opacity="1" fill-rule="nonzero"/></g><path stroke-linecap="butt" transform="matrix(0.292859, 0, 0, 0.292859, 46.730535, 44.479085)" fill="none" stroke-linejoin="miter" d="M 220.776028 28.402059 C 220.776028 55.252143 236.501934 70.924696 264.112304 71.724997 L 268.500619 71.724997 C 271.781852 71.724997 278.277625 71.724997 278.277625 81.502002 L 278.277625 95.307187 C 278.277625 100.455787 270.981551 106.39135 260.644335 106.39135 L 224.243997 106.39135 L 224.243997 134.188457 L 260.644335 134.188457 C 285.533683 134.188457 305.887994 116.741904 305.887994 95.307187 L 305.887994 81.502002 C 305.887994 63.495239 294.190268 43.941228 268.500619 43.941228 L 266.019687 43.941228 C 253.348262 43.941228 248.573135 41.03347 248.573135 28.402059 C 248.573135 24.000406 254.135224 16.704332 258.35014 16.704332 L 273.64922 16.704332 L 301.446326 16.891069 L 301.446326 -10.906038 L 254.895509 -10.906038 C 235.514897 -8.79858 220.776028 11.142243 220.776028 28.402059 Z M 347.263534 71.724997 C 373.513393 71.724997 392.507194 54.465181 392.507194 30.509517 C 392.507194 7.914364 375.607513 -8.985317 351.838586 -10.906038 L 315.438248 -10.906038 L 315.438248 134.188457 L 343.235355 134.188457 L 343.235355 71.724997 Z M 343.422092 16.704332 L 347.263534 16.704332 C 350.11794 16.704332 364.710087 17.504633 364.710087 30.509517 C 364.710087 42.954191 351.465112 43.941228 347.263534 43.941228 L 343.422092 43.941228 Z M 433.869395 71.724997 C 460.119254 71.724997 479.113055 54.465181 479.113055 30.509517 C 479.113055 7.914364 462.226712 -8.985317 438.457785 -10.906038 L 402.057447 -10.906038 L 402.057447 134.188457 L 429.854554 134.188457 L 429.854554 71.724997 Z M 430.041291 16.704332 L 433.869395 16.704332 C 436.723801 16.704332 451.329286 17.504633 451.329286 30.509517 C 451.329286 42.954191 438.084312 43.941228 433.869395 43.941228 L 430.041291 43.941228 Z M 488.676647 28.402059 C 488.676647 55.252143 504.389215 70.924696 531.999584 71.724997 L 536.401238 71.724997 C 539.669132 71.724997 546.178243 71.724997 546.178243 81.502002 L 546.178243 95.307187 C 546.178243 100.455787 538.882169 106.39135 528.531615 106.39135 L 492.131277 106.39135 L 492.131277 134.188457 L 528.531615 134.188457 C 553.420963 134.188457 573.775275 116.741904 573.775275 95.307187 L 573.775275 81.502002 C 573.775275 63.495239 562.077548 43.941228 536.401238 43.941228 L 533.920306 43.941228 C 521.235542 43.941228 516.460415 41.03347 516.460415 28.402059 C 516.460415 24.000406 522.035842 16.704332 526.23742 16.704332 L 541.5365 16.704332 L 569.333606 16.891069 L 569.333606 -10.906038 L 522.78279 -10.906038 C 503.415516 -8.79858 488.676647 11.142243 488.676647 28.402059 Z M 488.676647 28.402059 " stroke="#ffffff" stroke-width="5.509842" stroke-opacity="1" stroke-miterlimit="4"/></svg>